<svg xmlns="http://www.w3.org/2000/svg" viewBox="57.58 43.62 175.70 128.09" width="175.7" height="128.09" role="img" aria-label="FOURWALLS — Real Estate">
  <!-- Canonical vertical lockup, extracted from fourwalls-brand.pdf.
       Coordinates are the brand sheet's own space, so icon/wordmark/tagline
       keep their exact brand spacing. Icon recoloured #e62065 -> #FF0062. -->
  <!-- Icon (brand pink) -->
  <g fill="#FF0062">
    <path d="m 0,0 v -16.441 l -14.74,-8.504 v 16.441 l 3.401,1.701 v -13.039 l 2.835,1.7 v 12.473 l 2.834,1.7 v -12.472 l 2.835,1.701 v 13.039 z" transform="matrix(1.3333333,0,0,-1.3333333,167.2108,59.472)"/>
    <path d="m 0,0 v -16.441 l 14.74,-8.504 v 16.441 l -3.401,1.701 v -13.039 l -2.835,1.7 v 12.473 l -2.834,1.7 v -12.472 l -2.835,1.701 v 13.039 z" transform="matrix(1.3333333,0,0,-1.3333333,125.6352,59.472)"/>
    <path d="m 0,0 2.834,1.701 13.04,-7.937 -2.835,-1.701 z" transform="matrix(1.3333333,0,0,-1.3333333,143.022,48.889333)"/>
    <path d="m 0,0 11.339,-6.803 10.89,6.779 -2.698,1.915 -8.76,-5.292 -8.503,5.102 z" transform="matrix(1.3333333,0,0,-1.3333333,127.90347,57.2044)"/>
  </g>
  <!-- Wordmark FOURWALLS (black) -->
  <g fill="#000000">
    <path d="m 0,0 v -2.962 h -5.274 v -2.407 h 4.281 v -2.963 h -4.281 v -4.28 H -8.561 V 0 Z" transform="matrix(1.3333333,0,0,-1.3333333,71.995867,124.75)"/>
    <path d="m 0,0 c -1.02,0 -1.848,-0.324 -2.484,-0.975 -0.638,-0.649 -0.956,-1.497 -0.956,-2.541 0,-1.057 0.318,-1.908 0.956,-2.551 0.636,-0.644 1.464,-0.965 2.484,-0.965 0.993,0 1.815,0.321 2.465,0.965 0.649,0.643 0.974,1.494 0.974,2.551 0,1.044 -0.325,1.892 -0.974,2.541 C 1.815,-0.324 0.993,0 0,0 m -4.835,1.138 c 1.312,1.255 2.917,1.882 4.815,1.882 1.899,0 3.51,-0.627 4.835,-1.882 1.326,-1.255 1.988,-2.807 1.988,-4.654 0,-1.847 -0.662,-3.398 -1.988,-4.653 -1.325,-1.255 -2.936,-1.883 -4.835,-1.883 -1.898,0 -3.503,0.628 -4.815,1.883 -1.312,1.255 -1.969,2.806 -1.969,4.653 0,1.847 0.657,3.399 1.969,4.654" transform="matrix(1.3333333,0,0,-1.3333333,85.3228,128.47)"/>
    <path d="m 0,0 v -7.262 c 0,-1.669 -0.525,-3.016 -1.576,-4.042 -1.051,-1.025 -2.386,-1.538 -4.004,-1.538 -1.631,0 -2.969,0.513 -4.013,1.538 -1.045,1.026 -1.567,2.373 -1.567,4.042 V 0 h 3.287 v -7.51 c 0,-0.714 0.213,-1.277 0.641,-1.691 0.426,-0.414 0.977,-0.621 1.652,-0.621 0.676,0 1.226,0.207 1.653,0.621 0.427,0.414 0.641,0.977 0.641,1.691 V 0 Z" transform="matrix(1.3333333,0,0,-1.3333333,114.522,124.75)"/>
    <path d="m 0,0 v -2.962 h 1.682 c 0.459,0 0.825,0.137 1.099,0.411 0.274,0.274 0.41,0.633 0.41,1.079 0,0.447 -0.136,0.803 -0.41,1.071 C 2.507,-0.134 2.141,0 1.682,0 Z M 7.874,-9.746 H 4.205 L 1.357,-5.828 H 0 V -9.746 H -3.286 V 2.866 h 4.949 c 1.414,0 2.58,-0.394 3.497,-1.184 0.917,-0.79 1.376,-1.841 1.376,-3.154 0,-1.592 -0.663,-2.79 -1.987,-3.592 z" transform="matrix(1.3333333,0,0,-1.3333333,125.01933,128.5716)"/>
    <path d="m 0,0 h 3.67 l -5.198,-12.842 h -1.051 l -3.211,6.593 -3.23,-6.593 h -1.05 L -15.269,0 h 3.669 l 2.371,-6.058 2.904,6.287 h 1.051 l 2.905,-6.287 z" transform="matrix(1.3333333,0,0,-1.3333333,158.1952,124.75)"/>
    <path d="M 0,0 -1.089,2.924 -2.197,0 Z m 1.624,-3.688 -0.458,1.05 h -4.529 l -0.459,-1.05 h -3.535 l 5.733,12.841 h 1.051 L 5.16,-3.688 Z" transform="matrix(1.3333333,0,0,-1.3333333,174.07013,136.6484)"/>
    <path d="m 0,0 v -9.65 h 5.218 v -2.962 h -8.504 l 0,12.612 z" transform="matrix(1.3333333,0,0,-1.3333333,189.91907,124.75)"/>
    <path d="m 0,0 v -9.65 h 5.218 v -2.962 h -8.504 l 0,12.612 z" transform="matrix(1.3333333,0,0,-1.3333333,206.40347,124.75)"/>
    <path d="M 0,0 C 2.025,0 3.465,-0.847 4.319,-2.541 L 2.121,-4.223 c -0.306,0.458 -0.618,0.796 -0.936,1.013 -0.319,0.216 -0.701,0.324 -1.147,0.324 -0.752,0 -1.127,-0.267 -1.127,-0.802 0,-0.229 0.079,-0.417 0.238,-0.564 0.16,-0.146 0.443,-0.303 0.851,-0.468 l 1.452,-0.611 c 1.096,-0.459 1.908,-0.984 2.437,-1.577 0.528,-0.593 0.793,-1.335 0.793,-2.227 0,-1.21 -0.437,-2.169 -1.309,-2.876 -0.873,-0.707 -1.977,-1.06 -3.315,-1.06 -1.135,0 -2.141,0.255 -3.02,0.764 -0.879,0.51 -1.548,1.198 -2.007,2.064 l 2.217,1.681 c 0.803,-1.083 1.739,-1.624 2.81,-1.624 0.866,0 1.298,0.306 1.298,0.917 0,0.281 -0.088,0.491 -0.267,0.631 -0.178,0.141 -0.516,0.319 -1.013,0.535 l -1.299,0.574 c -2.128,0.929 -3.191,2.198 -3.191,3.802 0,1.122 0.41,2.023 1.232,2.705 C -2.36,-0.341 -1.3,0 0,0" transform="matrix(1.3333333,0,0,-1.3333333,224.03627,124.444)"/>
  </g>
  <!-- Tagline REAL ESTATE (brand navy) -->
  <g fill="#1C3457">
    <path d="m 0,0 v -2.327 h 1.479 c 0.411,0 0.725,0.107 0.944,0.323 0.219,0.216 0.328,0.495 0.328,0.836 0,0.341 -0.109,0.621 -0.328,0.84 C 2.204,-0.109 1.89,0 1.479,0 Z M 3.599,-5.047 H 3.287 L 1.415,-2.56 H 0 v -2.487 h -0.256 v 5.278 h 1.751 c 0.475,0 0.847,-0.13 1.116,-0.391 0.269,-0.262 0.404,-0.595 0.404,-1 0,-0.373 -0.114,-0.688 -0.34,-0.944 C 2.448,-2.359 2.133,-2.509 1.728,-2.552 Z" transform="matrix(1.3333333,0,0,-1.3333333,111.4308,161.8776)"/>
    <path d="m 0,0 v -0.231 h -2.991 v -2.056 h 2.35 v -0.232 h -2.35 V -5.046 H 0.096 V -5.278 H -3.247 V 0 Z" transform="matrix(1.3333333,0,0,-1.3333333,122.46733,161.56907)"/>
    <path d="m 0,0 -1.359,-3.279 h 2.718 z m 2.039,-4.911 -0.583,1.399 h -2.912 l -0.575,-1.399 h -0.264 l 2.239,5.358 h 0.12 l 2.24,-5.358 z" transform="matrix(1.3333333,0,0,-1.3333333,127.12747,162.05853)"/>
    <path d="M 0,0 V -5.046 H 2.671 V -5.278 H -0.256 V 0 Z" transform="matrix(1.3333333,0,0,-1.3333333,132.68347,161.56907)"/>
    <path d="m 0,0 v -0.231 h -2.991 v -2.056 h 2.35 v -0.232 h -2.35 V -5.046 H 0.096 V -5.278 H -3.247 V 0 Z" transform="matrix(1.3333333,0,0,-1.3333333,149.0636,161.56907)"/>
    <path d="M 0,0 C 0.65,0 1.159,-0.267 1.527,-0.8 L 1.344,-0.943 c -0.336,0.464 -0.78,0.695 -1.328,0.695 -0.33,0 -0.619,-0.08 -0.864,-0.239 -0.246,-0.16 -0.368,-0.409 -0.368,-0.744 0,-0.289 0.078,-0.508 0.236,-0.661 0.157,-0.151 0.409,-0.31 0.755,-0.475 L 0.384,-2.655 C 0.805,-2.857 1.11,-3.062 1.3,-3.267 1.488,-3.473 1.583,-3.745 1.583,-4.087 1.583,-4.492 1.433,-4.818 1.132,-5.066 0.83,-5.314 0.453,-5.438 0,-5.438 c -0.789,0 -1.411,0.371 -1.864,1.111 l 0.192,0.144 c 0.421,-0.671 0.982,-1.007 1.68,-1.007 0.379,0 0.69,0.098 0.935,0.295 0.245,0.198 0.369,0.467 0.369,0.808 0,0.293 -0.078,0.522 -0.233,0.684 -0.154,0.163 -0.427,0.338 -0.815,0.524 l -0.608,0.288 c -0.181,0.085 -0.324,0.158 -0.428,0.22 -0.104,0.061 -0.22,0.146 -0.348,0.256 -0.128,0.109 -0.221,0.234 -0.279,0.376 -0.06,0.141 -0.089,0.304 -0.089,0.492 0,0.389 0.142,0.694 0.428,0.915 C -0.774,-0.11 -0.422,0 0,0" transform="matrix(1.3333333,0,0,-1.3333333,153.2004,161.46227)"/>
    <path d="m 0,0 v -0.231 h -1.992 v -5.047 h -0.256 v 5.047 H -4.239 V 0 Z" transform="matrix(1.3333333,0,0,-1.3333333,162.60667,161.56907)"/>
    <path d="m 0,0 -1.359,-3.279 h 2.718 z m 2.039,-4.911 -0.583,1.399 h -2.912 l -0.575,-1.399 h -0.264 l 2.239,5.358 h 0.12 l 2.24,-5.358 z" transform="matrix(1.3333333,0,0,-1.3333333,166.19907,162.05853)"/>
    <path d="m 0,0 v -0.231 h -1.992 v -5.047 h -0.256 v 5.047 H -4.239 V 0 Z" transform="matrix(1.3333333,0,0,-1.3333333,175.4556,161.56907)"/>
    <path d="m 0,0 v -0.231 h -2.991 v -2.056 h 2.35 v -0.232 h -2.35 V -5.046 H 0.096 V -5.278 H -3.247 V 0 Z" transform="matrix(1.3333333,0,0,-1.3333333,181.7368,161.56907)"/>
  </g>
</svg>
