<svg xmlns="http://www.w3.org/2000/svg" viewBox="0 0 64 64" role="img" aria-label="Four Walls">
	<!-- Favicon: brand cube from fourwalls_logo_vertical.svg on a pink disc.
	     Generated (with the .fw.png fallbacks) — see docs/brand.md. -->
	<circle cx="32" cy="32" r="32" fill="#FF0062"/>
	<path fill="#FFFFFF" fill-rule="evenodd" d="M50.03 23.15L50.03 42.16L32.98 52L32.98 32.98L36.92 31.02L36.92 46.1L40.2 44.13L40.2 29.7L43.47 27.74L43.47 42.16L46.75 40.2L46.75 25.12ZM13.97 23.15L13.97 42.16L31.02 52L31.02 32.98L27.08 31.02L27.08 46.1L23.8 44.13L23.8 29.7L20.53 27.74L20.53 42.16L17.25 40.2L17.25 25.12ZM29.05 13.97L32.33 12L47.41 21.18L44.13 23.15ZM15.93 21.18L29.05 29.05L41.65 21.21L38.53 18.99L28.39 25.11L18.56 19.21Z"/>
</svg>
